<svg width="1440" height="772" xmlns="http://www.w3.org/2000/svg"><g><path d="M-26,-118L-127,224L-46,92Z" fill="#ffffff" stroke="#ffffff" fill-opacity="1" stroke-opacity="1"/><path d="M-26,-118L-46,92L36,62Z" fill="#ffffff" stroke="#ffffff" fill-opacity="1" stroke-opacity="1"/><path d="M-26,-118L36,62L119,-65Z" fill="#fdfdfd" stroke="#fdfdfd" fill-opacity="1" stroke-opacity="1"/><path d="M-26,-118L119,-65L180,-70Z" fill="#fbfbfb" stroke="#fbfbfb" fill-opacity="1" stroke-opacity="1"/><path d="M-26,-118L180,-70L386,-94Z" fill="#f6f6f6" stroke="#f6f6f6" fill-opacity="1" stroke-opacity="1"/><path d="M-26,-118L386,-94L543,-104Z" fill="#eeeeee" stroke="#eeeeee" fill-opacity="1" stroke-opacity="1"/><path d="M-26,-118L543,-104L790,-130Z" fill="#e2e2e2" stroke="#e2e2e2" fill-opacity="1" stroke-opacity="1"/><path d="M119,-65L36,62L214,28Z" fill="#f9f9f9" stroke="#f9f9f9" fill-opacity="1" stroke-opacity="1"/><path d="M119,-65L214,28L180,-70Z" fill="#f7f7f7" stroke="#f7f7f7" fill-opacity="1" stroke-opacity="1"/><path d="M180,-70L214,28L386,-94Z" fill="#f1f1f1" stroke="#f1f1f1" fill-opacity="1" stroke-opacity="1"/><path d="M386,-94L214,28L415,81Z" fill="#ebebeb" stroke="#ebebeb" fill-opacity="1" stroke-opacity="1"/><path d="M386,-94L415,81L494,62Z" fill="#e2e2e2" stroke="#e2e2e2" fill-opacity="1" stroke-opacity="1"/><path d="M386,-94L494,62L543,-104Z" fill="#dfdfdf" stroke="#dfdfdf" fill-opacity="1" stroke-opacity="1"/><path d="M543,-104L494,62L716,45Z" fill="#d2d2d2" stroke="#d2d2d2" fill-opacity="1" stroke-opacity="1"/><path d="M543,-104L716,45L663,-105Z" fill="#cbcbcb" stroke="#cbcbcb" fill-opacity="1" stroke-opacity="1"/><path d="M543,-104L663,-105L790,-130Z" fill="#c8c8c8" stroke="#c8c8c8" fill-opacity="1" stroke-opacity="1"/><path d="M663,-105L716,45L790,-130Z" fill="#c2c2c2" stroke="#c2c2c2" fill-opacity="1" stroke-opacity="1"/><path d="M790,-130L716,45L800,30Z" fill="#bdbdbd" stroke="#bdbdbd" fill-opacity="1" stroke-opacity="1"/><path d="M790,-130L800,30L923,-92Z" fill="#b5b5b5" stroke="#b5b5b5" fill-opacity="1" stroke-opacity="1"/><path d="M790,-130L923,-92L1095,-75Z" fill="#ababab" stroke="#ababab" fill-opacity="1" stroke-opacity="1"/><path d="M790,-130L1095,-75L1539,-100Z" fill="#909090" stroke="#909090" fill-opacity="1" stroke-opacity="1"/><path d="M923,-92L800,30L948,94Z" fill="#b0b0b0" stroke="#b0b0b0" fill-opacity="1" stroke-opacity="1"/><path d="M923,-92L948,94L1095,-75Z" fill="#a5a5a5" stroke="#a5a5a5" fill-opacity="1" stroke-opacity="1"/><path d="M1095,-75L948,94L1094,99Z" fill="#9d9d9d" stroke="#9d9d9d" fill-opacity="1" stroke-opacity="1"/><path d="M1095,-75L1094,99L1222,32Z" fill="#909090" stroke="#909090" fill-opacity="1" stroke-opacity="1"/><path d="M1095,-75L1222,32L1259,-37Z" fill="#8a8a8a" stroke="#8a8a8a" fill-opacity="1" stroke-opacity="1"/><path d="M1095,-75L1259,-37L1539,-100Z" fill="#808080" stroke="#808080" fill-opacity="1" stroke-opacity="1"/><path d="M1259,-37L1222,32L1460,122Z" fill="#808080" stroke="#808080" fill-opacity="1" stroke-opacity="1"/><path d="M1259,-37L1460,122L1485,-65Z" fill="#808080" stroke="#808080" fill-opacity="1" stroke-opacity="1"/><path d="M1259,-37L1485,-65L1539,-100Z" fill="#808080" stroke="#808080" fill-opacity="1" stroke-opacity="1"/><path d="M1485,-65L1460,122L1548,125Z" fill="#808080" stroke="#808080" fill-opacity="1" stroke-opacity="1"/><path d="M1485,-65L1548,125L1539,-100Z" fill="#808080" stroke="#808080" fill-opacity="1" stroke-opacity="1"/><path d="M1539,-100L1548,125L1600,267Z" fill="#808080" stroke="#808080" fill-opacity="1" stroke-opacity="1"/><path d="M-46,92L-127,224L102,257Z" fill="#fcfcfc" stroke="#fcfcfc" fill-opacity="1" stroke-opacity="1"/><path d="M-46,92L102,257L36,62Z" fill="#fefefe" stroke="#fefefe" fill-opacity="1" stroke-opacity="1"/><path d="M36,62L102,257L237,181Z" fill="#f9f9f9" stroke="#f9f9f9" fill-opacity="1" stroke-opacity="1"/><path d="M36,62L237,181L214,28Z" fill="#f8f8f8" stroke="#f8f8f8" fill-opacity="1" stroke-opacity="1"/><path d="M214,28L237,181L415,81Z" fill="#efefef" stroke="#efefef" fill-opacity="1" stroke-opacity="1"/><path d="M415,81L237,181L413,238Z" fill="#e9e9e9" stroke="#e9e9e9" fill-opacity="1" stroke-opacity="1"/><path d="M415,81L413,238L494,62Z" fill="#e2e2e2" stroke="#e2e2e2" fill-opacity="1" stroke-opacity="1"/><path d="M494,62L413,238L472,261Z" fill="#dedede" stroke="#dedede" fill-opacity="1" stroke-opacity="1"/><path d="M494,62L472,261L731,284Z" fill="#cecece" stroke="#cecece" fill-opacity="1" stroke-opacity="1"/><path d="M494,62L731,284L716,45Z" fill="#cacaca" stroke="#cacaca" fill-opacity="1" stroke-opacity="1"/><path d="M716,45L731,284L877,171Z" fill="#bcbcbc" stroke="#bcbcbc" fill-opacity="1" stroke-opacity="1"/><path d="M716,45L877,171L800,30Z" fill="#bababa" stroke="#bababa" fill-opacity="1" stroke-opacity="1"/><path d="M800,30L877,171L948,94Z" fill="#b2b2b2" stroke="#b2b2b2" fill-opacity="1" stroke-opacity="1"/><path d="M948,94L877,171L978,255Z" fill="#ababab" stroke="#ababab" fill-opacity="1" stroke-opacity="1"/><path d="M948,94L978,255L1094,99Z" fill="#a2a2a2" stroke="#a2a2a2" fill-opacity="1" stroke-opacity="1"/><path d="M1094,99L978,255L1181,266Z" fill="#919191" stroke="#919191" fill-opacity="1" stroke-opacity="1"/><path d="M1094,99L1181,266L1231,200Z" fill="#8a8a8a" stroke="#8a8a8a" fill-opacity="1" stroke-opacity="1"/><path d="M1094,99L1231,200L1222,32Z" fill="#8b8b8b" stroke="#8b8b8b" fill-opacity="1" stroke-opacity="1"/><path d="M1222,32L1231,200L1460,122Z" fill="#808080" stroke="#808080" fill-opacity="1" stroke-opacity="1"/><path d="M1460,122L1231,200L1434,227Z" fill="#7e7e7e" stroke="#7e7e7e" fill-opacity="1" stroke-opacity="1"/><path d="M1460,122L1434,227L1548,125Z" fill="#808080" stroke="#808080" fill-opacity="1" stroke-opacity="1"/><path d="M1548,125L1434,227L1600,267Z" fill="#7a7a7a" stroke="#7a7a7a" fill-opacity="1" stroke-opacity="1"/><path d="M-127,224L-119,481L-78,381Z" fill="#d5d5d5" stroke="#d5d5d5" fill-opacity="1" stroke-opacity="1"/><path d="M-127,224L-78,381L102,257Z" fill="#e8e8e8" stroke="#e8e8e8" fill-opacity="1" stroke-opacity="1"/><path d="M102,257L-78,381L76,385Z" fill="#d8d8d8" stroke="#d8d8d8" fill-opacity="1" stroke-opacity="1"/><path d="M102,257L76,385L213,430Z" fill="#d0d0d0" stroke="#d0d0d0" fill-opacity="1" stroke-opacity="1"/><path d="M102,257L213,430L237,181Z" fill="#dfdfdf" stroke="#dfdfdf" fill-opacity="1" stroke-opacity="1"/><path d="M237,181L213,430L360,328Z" fill="#d2d2d2" stroke="#d2d2d2" fill-opacity="1" stroke-opacity="1"/><path d="M237,181L360,328L413,238Z" fill="#dddddd" stroke="#dddddd" fill-opacity="1" stroke-opacity="1"/><path d="M413,238L360,328L472,261Z" fill="#d0d0d0" stroke="#d0d0d0" fill-opacity="1" stroke-opacity="1"/><path d="M472,261L360,328L581,376Z" fill="#bfbfbf" stroke="#bfbfbf" fill-opacity="1" stroke-opacity="1"/><path d="M472,261L581,376L731,284Z" fill="#b4b4b4" stroke="#b4b4b4" fill-opacity="1" stroke-opacity="1"/><path d="M731,284L581,376L679,383Z" fill="#a1a1a1" stroke="#a1a1a1" fill-opacity="1" stroke-opacity="1"/><path d="M731,284L679,383L787,341Z" fill="#9d9d9d" stroke="#9d9d9d" fill-opacity="1" stroke-opacity="1"/><path d="M731,284L787,341L877,171Z" fill="#a8a8a8" stroke="#a8a8a8" fill-opacity="1" stroke-opacity="1"/><path d="M877,171L787,341L978,255Z" fill="#a2a2a2" stroke="#a2a2a2" fill-opacity="1" stroke-opacity="1"/><path d="M978,255L787,341L1006,428Z" fill="#878787" stroke="#878787" fill-opacity="1" stroke-opacity="1"/><path d="M978,255L1006,428L1168,381Z" fill="#737373" stroke="#737373" fill-opacity="1" stroke-opacity="1"/><path d="M978,255L1168,381L1181,266Z" fill="#797979" stroke="#797979" fill-opacity="1" stroke-opacity="1"/><path d="M1181,266L1168,381L1311,319Z" fill="#666666" stroke="#666666" fill-opacity="1" stroke-opacity="1"/><path d="M1181,266L1311,319L1231,200Z" fill="#747474" stroke="#747474" fill-opacity="1" stroke-opacity="1"/><path d="M1231,200L1311,319L1434,227Z" fill="#727272" stroke="#727272" fill-opacity="1" stroke-opacity="1"/><path d="M1434,227L1311,319L1445,351Z" fill="#666666" stroke="#666666" fill-opacity="1" stroke-opacity="1"/><path d="M1434,227L1445,351L1533,315Z" fill="#666666" stroke="#666666" fill-opacity="1" stroke-opacity="1"/><path d="M1434,227L1533,315L1600,267Z" fill="#6d6d6d" stroke="#6d6d6d" fill-opacity="1" stroke-opacity="1"/><path d="M1600,267L1533,315L1584,567Z" fill="#505050" stroke="#505050" fill-opacity="1" stroke-opacity="1"/><path d="M1600,267L1584,567L1632,664Z" fill="#353535" stroke="#353535" fill-opacity="1" stroke-opacity="1"/><path d="M-78,381L-119,481L45,562Z" fill="#bababa" stroke="#bababa" fill-opacity="1" stroke-opacity="1"/><path d="M-78,381L45,562L76,385Z" fill="#c1c1c1" stroke="#c1c1c1" fill-opacity="1" stroke-opacity="1"/><path d="M76,385L45,562L213,430Z" fill="#b8b8b8" stroke="#b8b8b8" fill-opacity="1" stroke-opacity="1"/><path d="M213,430L45,562L169,582Z" fill="#a7a7a7" stroke="#a7a7a7" fill-opacity="1" stroke-opacity="1"/><path d="M213,430L169,582L328,572Z" fill="#a0a0a0" stroke="#a0a0a0" fill-opacity="1" stroke-opacity="1"/><path d="M213,430L328,572L360,328Z" fill="#afafaf" stroke="#afafaf" fill-opacity="1" stroke-opacity="1"/><path d="M360,328L328,572L466,523Z" fill="#a1a1a1" stroke="#a1a1a1" fill-opacity="1" stroke-opacity="1"/><path d="M360,328L466,523L581,376Z" fill="#a9a9a9" stroke="#a9a9a9" fill-opacity="1" stroke-opacity="1"/><path d="M581,376L466,523L640,514Z" fill="#909090" stroke="#909090" fill-opacity="1" stroke-opacity="1"/><path d="M581,376L640,514L679,383Z" fill="#929292" stroke="#929292" fill-opacity="1" stroke-opacity="1"/><path d="M679,383L640,514L821,530Z" fill="#7d7d7d" stroke="#7d7d7d" fill-opacity="1" stroke-opacity="1"/><path d="M679,383L821,530L787,341Z" fill="#858585" stroke="#858585" fill-opacity="1" stroke-opacity="1"/><path d="M787,341L821,530L951,492Z" fill="#737373" stroke="#737373" fill-opacity="1" stroke-opacity="1"/><path d="M787,341L951,492L1006,428Z" fill="#747474" stroke="#747474" fill-opacity="1" stroke-opacity="1"/><path d="M1006,428L951,492L1149,473Z" fill="#5b5b5b" stroke="#5b5b5b" fill-opacity="1" stroke-opacity="1"/><path d="M1006,428L1149,473L1168,381Z" fill="#595959" stroke="#595959" fill-opacity="1" stroke-opacity="1"/><path d="M1168,381L1149,473L1239,526Z" fill="#494949" stroke="#494949" fill-opacity="1" stroke-opacity="1"/><path d="M1168,381L1239,526L1311,319Z" fill="#4e4e4e" stroke="#4e4e4e" fill-opacity="1" stroke-opacity="1"/><path d="M1311,319L1239,526L1401,487Z" fill="#414141" stroke="#414141" fill-opacity="1" stroke-opacity="1"/><path d="M1311,319L1401,487L1445,351Z" fill="#4f4f4f" stroke="#4f4f4f" fill-opacity="1" stroke-opacity="1"/><path d="M1445,351L1401,487L1584,567Z" fill="#3c3c3c" stroke="#3c3c3c" fill-opacity="1" stroke-opacity="1"/><path d="M1445,351L1584,567L1533,315Z" fill="#494949" stroke="#494949" fill-opacity="1" stroke-opacity="1"/><path d="M-119,481L-65,1007L-70,842Z" fill="#878787" stroke="#878787" fill-opacity="1" stroke-opacity="1"/><path d="M-119,481L-70,842L-42,716Z" fill="#8f8f8f" stroke="#8f8f8f" fill-opacity="1" stroke-opacity="1"/><path d="M-119,481L-42,716L45,562Z" fill="#9a9a9a" stroke="#9a9a9a" fill-opacity="1" stroke-opacity="1"/><path d="M45,562L-42,716L101,696Z" fill="#909090" stroke="#909090" fill-opacity="1" stroke-opacity="1"/><path d="M45,562L101,696L169,582Z" fill="#909090" stroke="#909090" fill-opacity="1" stroke-opacity="1"/><path d="M169,582L101,696L279,714Z" fill="#888888" stroke="#888888" fill-opacity="1" stroke-opacity="1"/><path d="M169,582L279,714L325,656Z" fill="#838383" stroke="#838383" fill-opacity="1" stroke-opacity="1"/><path d="M169,582L325,656L328,572Z" fill="#868686" stroke="#868686" fill-opacity="1" stroke-opacity="1"/><path d="M328,572L325,656L466,523Z" fill="#848484" stroke="#848484" fill-opacity="1" stroke-opacity="1"/><path d="M466,523L325,656L548,665Z" fill="#777777" stroke="#777777" fill-opacity="1" stroke-opacity="1"/><path d="M466,523L548,665L640,514Z" fill="#777777" stroke="#777777" fill-opacity="1" stroke-opacity="1"/><path d="M640,514L548,665L662,639Z" fill="#646464" stroke="#646464" fill-opacity="1" stroke-opacity="1"/><path d="M640,514L662,639L821,530Z" fill="#666666" stroke="#666666" fill-opacity="1" stroke-opacity="1"/><path d="M821,530L662,639L854,657Z" fill="#525252" stroke="#525252" fill-opacity="1" stroke-opacity="1"/><path d="M821,530L854,657L961,624Z" fill="#474747" stroke="#474747" fill-opacity="1" stroke-opacity="1"/><path d="M821,530L961,624L951,492Z" fill="#555555" stroke="#555555" fill-opacity="1" stroke-opacity="1"/><path d="M951,492L961,624L1149,473Z" fill="#4d4d4d" stroke="#4d4d4d" fill-opacity="1" stroke-opacity="1"/><path d="M1149,473L961,624L1102,731Z" fill="#2f2f2f" stroke="#2f2f2f" fill-opacity="1" stroke-opacity="1"/><path d="M1149,473L1102,731L1239,526Z" fill="#2b2b2b" stroke="#2b2b2b" fill-opacity="1" stroke-opacity="1"/><path d="M1239,526L1102,731L1242,706Z" fill="#1c1c1c" stroke="#1c1c1c" fill-opacity="1" stroke-opacity="1"/><path d="M1239,526L1242,706L1384,689Z" fill="#131313" stroke="#131313" fill-opacity="1" stroke-opacity="1"/><path d="M1239,526L1384,689L1401,487Z" fill="#212121" stroke="#212121" fill-opacity="1" stroke-opacity="1"/><path d="M1401,487L1384,689L1584,567Z" fill="#1c1c1c" stroke="#1c1c1c" fill-opacity="1" stroke-opacity="1"/><path d="M1584,567L1384,689L1632,664Z" fill="#131313" stroke="#131313" fill-opacity="1" stroke-opacity="1"/><path d="M-42,716L-70,842L104,814Z" fill="#868686" stroke="#868686" fill-opacity="1" stroke-opacity="1"/><path d="M-42,716L104,814L101,696Z" fill="#888888" stroke="#888888" fill-opacity="1" stroke-opacity="1"/><path d="M101,696L104,814L198,843Z" fill="#808080" stroke="#808080" fill-opacity="1" stroke-opacity="1"/><path d="M101,696L198,843L279,714Z" fill="#7f7f7f" stroke="#7f7f7f" fill-opacity="1" stroke-opacity="1"/><path d="M279,714L198,843L405,877Z" fill="#747474" stroke="#747474" fill-opacity="1" stroke-opacity="1"/><path d="M279,714L405,877L325,656Z" fill="#757575" stroke="#757575" fill-opacity="1" stroke-opacity="1"/><path d="M325,656L405,877L548,665Z" fill="#6e6e6e" stroke="#6e6e6e" fill-opacity="1" stroke-opacity="1"/><path d="M548,665L405,877L534,858Z" fill="#626262" stroke="#626262" fill-opacity="1" stroke-opacity="1"/><path d="M548,665L534,858L666,775Z" fill="#5b5b5b" stroke="#5b5b5b" fill-opacity="1" stroke-opacity="1"/><path d="M548,665L666,775L662,639Z" fill="#5c5c5c" stroke="#5c5c5c" fill-opacity="1" stroke-opacity="1"/><path d="M662,639L666,775L854,657Z" fill="#505050" stroke="#505050" fill-opacity="1" stroke-opacity="1"/><path d="M854,657L666,775L803,867Z" fill="#454545" stroke="#454545" fill-opacity="1" stroke-opacity="1"/><path d="M854,657L803,867L928,858Z" fill="#393939" stroke="#393939" fill-opacity="1" stroke-opacity="1"/><path d="M854,657L928,858L961,624Z" fill="#3b3b3b" stroke="#3b3b3b" fill-opacity="1" stroke-opacity="1"/><path d="M961,624L928,858L1077,776Z" fill="#2f2f2f" stroke="#2f2f2f" fill-opacity="1" stroke-opacity="1"/><path d="M961,624L1077,776L1102,731Z" fill="#2a2a2a" stroke="#2a2a2a" fill-opacity="1" stroke-opacity="1"/><path d="M1102,731L1077,776L1286,822Z" fill="#161616" stroke="#161616" fill-opacity="1" stroke-opacity="1"/><path d="M1102,731L1286,822L1242,706Z" fill="#121212" stroke="#121212" fill-opacity="1" stroke-opacity="1"/><path d="M1242,706L1286,822L1384,689Z" fill="#0b0b0b" stroke="#0b0b0b" fill-opacity="1" stroke-opacity="1"/><path d="M1384,689L1286,822L1442,789Z" fill="#090909" stroke="#090909" fill-opacity="1" stroke-opacity="1"/><path d="M1384,689L1442,789L1632,664Z" fill="#0d0d0d" stroke="#0d0d0d" fill-opacity="1" stroke-opacity="1"/><path d="M1632,664L1442,789L1626,797Z" fill="#0a0a0a" stroke="#0a0a0a" fill-opacity="1" stroke-opacity="1"/><path d="M-70,842L-65,1007L95,943Z" fill="#808080" stroke="#808080" fill-opacity="1" stroke-opacity="1"/><path d="M-70,842L95,943L104,814Z" fill="#7e7e7e" stroke="#7e7e7e" fill-opacity="1" stroke-opacity="1"/><path d="M104,814L95,943L198,843Z" fill="#7a7a7a" stroke="#7a7a7a" fill-opacity="1" stroke-opacity="1"/><path d="M198,843L95,943L228,1012Z" fill="#777777" stroke="#777777" fill-opacity="1" stroke-opacity="1"/><path d="M198,843L228,1012L372,996Z" fill="#717171" stroke="#717171" fill-opacity="1" stroke-opacity="1"/><path d="M198,843L372,996L405,877Z" fill="#6c6c6c" stroke="#6c6c6c" fill-opacity="1" stroke-opacity="1"/><path d="M405,877L372,996L541,922Z" fill="#626262" stroke="#626262" fill-opacity="1" stroke-opacity="1"/><path d="M405,877L541,922L534,858Z" fill="#5d5d5d" stroke="#5d5d5d" fill-opacity="1" stroke-opacity="1"/><path d="M534,858L541,922L666,775Z" fill="#545454" stroke="#545454" fill-opacity="1" stroke-opacity="1"/><path d="M666,775L541,922L680,989Z" fill="#4d4d4d" stroke="#4d4d4d" fill-opacity="1" stroke-opacity="1"/><path d="M666,775L680,989L803,867Z" fill="#434343" stroke="#434343" fill-opacity="1" stroke-opacity="1"/><path d="M803,867L680,989L846,946Z" fill="#3c3c3c" stroke="#3c3c3c" fill-opacity="1" stroke-opacity="1"/><path d="M803,867L846,946L928,858Z" fill="#343434" stroke="#343434" fill-opacity="1" stroke-opacity="1"/><path d="M928,858L846,946L926,999Z" fill="#2f2f2f" stroke="#2f2f2f" fill-opacity="1" stroke-opacity="1"/><path d="M928,858L926,999L1156,1005Z" fill="#232323" stroke="#232323" fill-opacity="1" stroke-opacity="1"/><path d="M928,858L1156,1005L1077,776Z" fill="#1c1c1c" stroke="#1c1c1c" fill-opacity="1" stroke-opacity="1"/><path d="M1077,776L1156,1005L1258,930Z" fill="#0e0e0e" stroke="#0e0e0e" fill-opacity="1" stroke-opacity="1"/><path d="M1077,776L1258,930L1286,822Z" fill="#0b0b0b" stroke="#0b0b0b" fill-opacity="1" stroke-opacity="1"/><path d="M1286,822L1258,930L1389,970Z" fill="#000000" stroke="#000000" fill-opacity="1" stroke-opacity="1"/><path d="M1286,822L1389,970L1442,789Z" fill="#010101" stroke="#010101" fill-opacity="1" stroke-opacity="1"/><path d="M1442,789L1389,970L1534,1024Z" fill="#000000" stroke="#000000" fill-opacity="1" stroke-opacity="1"/><path d="M1442,789L1534,1024L1626,797Z" fill="#000000" stroke="#000000" fill-opacity="1" stroke-opacity="1"/><path d="M-65,1007L228,1012L95,943Z" fill="#7c7c7c" stroke="#7c7c7c" fill-opacity="1" stroke-opacity="1"/><path d="M228,1012L1534,1024L1156,1005Z" fill="#272727" stroke="#272727" fill-opacity="1" stroke-opacity="1"/><path d="M228,1012L1156,1005L926,999Z" fill="#3d3d3d" stroke="#3d3d3d" fill-opacity="1" stroke-opacity="1"/><path d="M228,1012L926,999L680,989Z" fill="#4f4f4f" stroke="#4f4f4f" fill-opacity="1" stroke-opacity="1"/><path d="M228,1012L680,989L372,996Z" fill="#636363" stroke="#636363" fill-opacity="1" stroke-opacity="1"/><path d="M372,996L680,989L541,922Z" fill="#595959" stroke="#595959" fill-opacity="1" stroke-opacity="1"/><path d="M680,989L926,999L846,946Z" fill="#383838" stroke="#383838" fill-opacity="1" stroke-opacity="1"/><path d="M1156,1005L1534,1024L1389,970Z" fill="#000000" stroke="#000000" fill-opacity="1" stroke-opacity="1"/><path d="M1156,1005L1389,970L1258,930Z" fill="#020202" stroke="#020202" fill-opacity="1" stroke-opacity="1"/></g></svg>